<svg id="Camada_1" data-name="Camada 1" xmlns="http://www.w3.org/2000/svg" viewBox="0 0 608.65 224.78"><defs><style>.cls-1{fill:#2f9759;}.cls-2{fill:#2e2d2c;}.cls-3{fill:#1d1d1b;}.cls-4,.cls-5{fill:none;stroke:#fff;stroke-miterlimit:10;}.cls-4{stroke-width:0.09px;}.cls-5{stroke-width:0.08px;}.cls-6{fill:#fff;}.cls-7{fill:#878787;}</style></defs><title>logo_inst_svg</title><path class="cls-1" d="M117.05,336.5l88.67-137.22-76.55,0,0-26.93H251.62L164,312.5l87.63,0v23.91Z" transform="translate(-117.05 -172.33)"/><path class="cls-1" d="M290.82,195a13.31,13.31,0,1,1,3.86-9.38A12.76,12.76,0,0,1,290.82,195ZM268.87,336.44V211.1h25l-.43,125.34Z" transform="translate(-117.05 -172.33)"/><path class="cls-1" d="M666,317.87q-18.56,18.56-44.22,18.55t-44-18.55q-18.56-18.33-18.55-44t18.55-44.22q18.33-18.56,44-18.55T666,229.65q18.54,18.56,18.55,44.22T666,317.87ZM649.57,246a39.35,39.35,0,0,0-55.66,55.65A39.35,39.35,0,0,0,649.57,246Z" transform="translate(-117.05 -172.33)"/><path class="cls-1" d="M701.15,336.5V172.57H725.7V336.5Z" transform="translate(-117.05 -172.33)"/><path class="cls-2" d="M125.07,362.52v33.62h-3.58V362.52Z" transform="translate(-117.05 -172.33)"/><path class="cls-2" d="M144.08,362.52l17.11,29v-29h3.58v33.62H160l-17.1-29.06v29.06h-3.58V362.52Z" transform="translate(-117.05 -172.33)"/><path class="cls-2" d="M177.16,362.52h12.48a13.42,13.42,0,0,1,6,1.33,13.89,13.89,0,0,1,4.57,3.61,16.12,16.12,0,0,1,2.89,5.33,21.31,21.31,0,0,1-.06,13.15,16.3,16.3,0,0,1-3,5.35,13.79,13.79,0,0,1-4.57,3.56,13.25,13.25,0,0,1-5.86,1.29H177.16Zm3.54,30.37h7.49a12.92,12.92,0,0,0,4.91-.91,10.8,10.8,0,0,0,3.89-2.66,12.34,12.34,0,0,0,2.56-4.27,16.48,16.48,0,0,0,.93-5.73,17.77,17.77,0,0,0-.93-6.05,11.39,11.39,0,0,0-2.57-4.22,10.34,10.34,0,0,0-3.9-2.47,14.42,14.42,0,0,0-4.89-.8H180.7Z" transform="translate(-117.05 -172.33)"/><path class="cls-2" d="M220.06,362.52v22.64a8.65,8.65,0,0,0,.76,3.7,8.47,8.47,0,0,0,4.73,4.49,8.16,8.16,0,0,0,3.07.61,10.21,10.21,0,0,0,3.3-.56,9.07,9.07,0,0,0,2.94-1.65A8.38,8.38,0,0,0,237,389a8.29,8.29,0,0,0,.82-3.79V362.52h3.61V385a11.33,11.33,0,0,1-1.14,5.19,11.94,11.94,0,0,1-3,3.78,12.86,12.86,0,0,1-4.09,2.33,13.74,13.74,0,0,1-4.56.8,12.83,12.83,0,0,1-4.35-.79A12.11,12.11,0,0,1,220.4,394a11.64,11.64,0,0,1-2.83-3.81,12.08,12.08,0,0,1-1.1-5.29v-22.4Z" transform="translate(-117.05 -172.33)"/><path class="cls-2" d="M257.45,385.66a9.11,9.11,0,0,0,.82,3.3,8.42,8.42,0,0,0,1.85,2.61,8.08,8.08,0,0,0,2.73,1.72,9.24,9.24,0,0,0,3.47.63,14.21,14.21,0,0,0,3.23-.37,8,8,0,0,0,2.71-1.18,5.82,5.82,0,0,0,1.88-2.09,6.41,6.41,0,0,0,.7-3.13,4.25,4.25,0,0,0-.76-2.54,7.12,7.12,0,0,0-2-1.81,13.88,13.88,0,0,0-2.82-1.32c-1-.36-2.11-.71-3.18-1-1.35-.4-2.7-.84-4-1.33a16.15,16.15,0,0,1-3.66-1.87,9.42,9.42,0,0,1-2.64-2.84,8.05,8.05,0,0,1-1-4.21,8,8,0,0,1,.82-3.69,7.44,7.44,0,0,1,2.3-2.69,10.52,10.52,0,0,1,3.54-1.65,16.83,16.83,0,0,1,4.51-.56,15.49,15.49,0,0,1,3.87.44,11.16,11.16,0,0,1,2.95,1.19,8.41,8.41,0,0,1,2.14,1.73,9.59,9.59,0,0,1,1.42,2.1,9.77,9.77,0,0,1,.83,2.28,13.62,13.62,0,0,1,.35,2.27h-3.68a7.74,7.74,0,0,0-.8-3,6.89,6.89,0,0,0-1.72-2.15,7.45,7.45,0,0,0-2.44-1.31,9.64,9.64,0,0,0-2.92-.44,13.47,13.47,0,0,0-2.76.29,7.46,7.46,0,0,0-2.43.94,5.37,5.37,0,0,0-1.74,1.68,4.69,4.69,0,0,0-.66,2.53,4.47,4.47,0,0,0,.75,2.62,6.57,6.57,0,0,0,2,1.85,15.36,15.36,0,0,0,2.85,1.34c1.07.38,2.17.74,3.31,1.09,1.36.41,2.71.86,4.06,1.35a15.64,15.64,0,0,1,3.6,1.85,9.09,9.09,0,0,1,2.58,2.77,7.91,7.91,0,0,1,1,4.09,9.85,9.85,0,0,1-.9,4.33A8.7,8.7,0,0,1,275,394.6a11,11,0,0,1-3.83,1.88,17.3,17.3,0,0,1-4.85.64,13.62,13.62,0,0,1-4.6-.8,12.35,12.35,0,0,1-4-2.29,11.77,11.77,0,0,1-2.84-3.62,10.75,10.75,0,0,1-1.16-4.75Z" transform="translate(-117.05 -172.33)"/><path class="cls-2" d="M316.6,362.52v3.26H305.47v30.36h-3.58V365.78H290.76v-3.26Z" transform="translate(-117.05 -172.33)"/><path class="cls-2" d="M352.87,372.09a10.07,10.07,0,0,1-.29,2.45,9.09,9.09,0,0,1-.89,2.27,9.64,9.64,0,0,1-1.48,2,8.71,8.71,0,0,1-2,1.55,5.56,5.56,0,0,1,2.13,1,5.2,5.2,0,0,1,1.31,1.58,6.62,6.62,0,0,1,.65,2,14.09,14.09,0,0,1,.17,2.16v5.1a7.51,7.51,0,0,0,.3,2.13,8.35,8.35,0,0,0,.77,1.85H349.6a3.54,3.54,0,0,1-.38-.88,8.37,8.37,0,0,1-.21-1c-.05-.34-.08-.68-.1-1s0-.63,0-.88V387a5.79,5.79,0,0,0-.33-1.92,4.49,4.49,0,0,0-1.07-1.7,5.45,5.45,0,0,0-1.91-1.21,7.76,7.76,0,0,0-2.86-.46H332.54v14.42H329V362.52h13.76a10.44,10.44,0,0,1,4.34.86,9.9,9.9,0,0,1,3.19,2.22,9.34,9.34,0,0,1,2,3.07A9.23,9.23,0,0,1,352.87,372.09Zm-20.33,6.47h10.18a6.34,6.34,0,0,0,2.52-.51,6.71,6.71,0,0,0,2.08-1.39,6.35,6.35,0,0,0,1.43-2.06,6.27,6.27,0,0,0,.52-2.56,6.15,6.15,0,0,0-.5-2.49,6.08,6.08,0,0,0-1.36-2,6.17,6.17,0,0,0-2.07-1.32,6.94,6.94,0,0,0-2.62-.47H332.54Z" transform="translate(-117.05 -172.33)"/><path class="cls-2" d="M371.08,362.52v33.62H367.5V362.52Z" transform="translate(-117.05 -172.33)"/><path class="cls-2" d="M399.55,362.52l12.24,33.62H408l-3.73-10.3H389.83l-3.73,10.3h-3.84l12.38-33.62Zm-2.51,3.3-6,16.87h12Z" transform="translate(-117.05 -172.33)"/><path class="cls-2" d="M444.14,362.52h12.48a13.45,13.45,0,0,1,6,1.33,13.89,13.89,0,0,1,4.57,3.61,16.12,16.12,0,0,1,2.89,5.33,20.27,20.27,0,0,1,1,6.48,20.06,20.06,0,0,1-1.07,6.67,16.46,16.46,0,0,1-3,5.35,14,14,0,0,1-4.58,3.56,13.28,13.28,0,0,1-5.86,1.29H444.14Zm3.53,30.37h7.5a12.92,12.92,0,0,0,4.91-.91,10.8,10.8,0,0,0,3.89-2.66,12.19,12.19,0,0,0,2.56-4.27,16.48,16.48,0,0,0,.93-5.73,17.77,17.77,0,0,0-.93-6.05,11.26,11.26,0,0,0-2.57-4.22,10.34,10.34,0,0,0-3.9-2.47,14.33,14.33,0,0,0-4.89-.8h-7.5Z" transform="translate(-117.05 -172.33)"/><path class="cls-2" d="M505.9,362.52v3.26H487v11.36h17.74v3.25H487v12.5h19.69v3.25H483.46V362.52Z" transform="translate(-117.05 -172.33)"/><path class="cls-2" d="M545.6,362.52l10.67,28.66,10.89-28.66h4.65v33.62h-3.58V368.55l-10.11,27.59h-3.25l-10.29-27.59v27.59H541V362.52Z" transform="translate(-117.05 -172.33)"/><path class="cls-2" d="M614.45,379.37a24,24,0,0,1-1,7.13,16.4,16.4,0,0,1-2.93,5.58,13.19,13.19,0,0,1-4.74,3.63,16.41,16.41,0,0,1-12.85,0,13.19,13.19,0,0,1-4.74-3.63,16.38,16.38,0,0,1-2.92-5.58,26.13,26.13,0,0,1,0-14.25,16.29,16.29,0,0,1,2.92-5.58,13.39,13.39,0,0,1,4.74-3.62,16.41,16.41,0,0,1,12.85,0,13.39,13.39,0,0,1,4.74,3.62,16.31,16.31,0,0,1,2.93,5.58A24,24,0,0,1,614.45,379.37Zm-3.61,0a19.43,19.43,0,0,0-.89-6.1,13.68,13.68,0,0,0-2.44-4.54,10.69,10.69,0,0,0-3.66-2.85,10.54,10.54,0,0,0-12.68,2.85,14,14,0,0,0-2.42,4.54,21.82,21.82,0,0,0,0,12.2,14.08,14.08,0,0,0,2.42,4.55,10.56,10.56,0,0,0,16.34,0,13.74,13.74,0,0,0,2.44-4.55A19.47,19.47,0,0,0,610.84,379.37Z" transform="translate(-117.05 -172.33)"/><path class="cls-2" d="M630.42,362.52v30.37h16.91v3.25h-20.5V362.52Z" transform="translate(-117.05 -172.33)"/><path class="cls-2" d="M673.91,362.52l12.24,33.62h-3.8l-3.72-10.3H664.18l-3.72,10.3h-3.85L669,362.52Zm-2.51,3.3-6,16.87h12Z" transform="translate(-117.05 -172.33)"/><path class="cls-2" d="M700.3,385.66a9.1,9.1,0,0,0,.81,3.3,8.58,8.58,0,0,0,1.85,2.61,8.18,8.18,0,0,0,2.73,1.72,9.29,9.29,0,0,0,3.48.63,14.21,14.21,0,0,0,3.23-.37,8.11,8.11,0,0,0,2.71-1.18,6,6,0,0,0,1.88-2.09,6.52,6.52,0,0,0,.69-3.13,4.18,4.18,0,0,0-.76-2.54,6.85,6.85,0,0,0-2-1.81,13.78,13.78,0,0,0-2.81-1.32c-1-.36-2.11-.71-3.19-1-1.35-.4-2.69-.84-4-1.33a16,16,0,0,1-3.66-1.87,9.42,9.42,0,0,1-2.64-2.84,8,8,0,0,1-1-4.21,8.08,8.08,0,0,1,.81-3.69,7.56,7.56,0,0,1,2.31-2.69,10.47,10.47,0,0,1,3.53-1.65,16.85,16.85,0,0,1,4.52-.56,15.55,15.55,0,0,1,3.87.44,11.44,11.44,0,0,1,2.95,1.19A8.59,8.59,0,0,1,717.7,365a9.59,9.59,0,0,1,1.42,2.1,10.24,10.24,0,0,1,.83,2.28,14.69,14.69,0,0,1,.34,2.27h-3.67a7.93,7.93,0,0,0-.81-3,6.76,6.76,0,0,0-1.72-2.15,7.3,7.3,0,0,0-2.43-1.31,9.69,9.69,0,0,0-2.92-.44A13.4,13.4,0,0,0,706,365a7.52,7.52,0,0,0-2.44.94,5.34,5.34,0,0,0-1.73,1.68,4.6,4.6,0,0,0-.66,2.53,4.47,4.47,0,0,0,.75,2.62,6.57,6.57,0,0,0,2,1.85,15.06,15.06,0,0,0,2.85,1.34c1.06.38,2.17.74,3.31,1.09q2,.62,4.05,1.35a15.72,15.72,0,0,1,3.61,1.85,9.06,9.06,0,0,1,2.57,2.77,7.82,7.82,0,0,1,1,4.09,9.85,9.85,0,0,1-.91,4.33,8.78,8.78,0,0,1-2.51,3.12,11,11,0,0,1-3.83,1.88,17.35,17.35,0,0,1-4.85.64,13.63,13.63,0,0,1-4.61-.8,12.45,12.45,0,0,1-4-2.29,11.74,11.74,0,0,1-2.83-3.62,10.89,10.89,0,0,1-1.17-4.75Z" transform="translate(-117.05 -172.33)"/><path class="cls-3" d="M235.77,355.38l-6.1,7.14h-3.14l4.39-7.14Z" transform="translate(-117.05 -172.33)"/><path class="cls-4" d="M340.73,229.24" transform="translate(-117.05 -172.33)"/><path class="cls-4" d="M340.73,229.24" transform="translate(-117.05 -172.33)"/><path class="cls-4" d="M340,239.18" transform="translate(-117.05 -172.33)"/><path class="cls-4" d="M340,239.18" transform="translate(-117.05 -172.33)"/><path class="cls-5" d="M544.56,211.94" transform="translate(-117.05 -172.33)"/><path class="cls-6" d="M549.25,221.81" transform="translate(-117.05 -172.33)"/><path class="cls-7" d="M565.25,225c-1.32,5.82-7.82,10-13.78,10h-.32a13.8,13.8,0,0,1-13.54-10.4s-.56-2.67-.75-3.89v-.07c-.35-2.57-1.3-8.74-1.5-9.21a.3.3,0,0,0,0-.1,4.09,4.09,0,0,0-3.77-2.5,3.47,3.47,0,0,0-3,1.31c-.55.88-5.49,16.23-7.17,23.09a197.12,197.12,0,0,1,4.82,24.21c.12.9.24,1.8.35,2.7.09.72.17,1.45.24,2.18,0,.2.05.4.08.6a202.87,202.87,0,0,1-2.59,60.2c-.6,3.05-1.27,6.05-2,9,0,0,0,0,0-.07A16.84,16.84,0,0,1,490,334.37a.22.22,0,0,1,0-.1c-.28-1-.54-2.08-.79-3.13a.15.15,0,0,1,0-.09,201.66,201.66,0,0,1-3.25-76.49q1-7,2.56-13.78c.23-1.05.48-2.09.72-3.13.47-2,1-4,1.53-5.94v0c-1.56-4.45-3.27-8.75-5.14-13.05,0,0,0,0,0,0s0,0,0-.05c-.62-1.45-1.25-2.89-1.92-4.32l-1.36-3.34a11.08,11.08,0,0,0-1.76-3.56,7.27,7.27,0,0,0-.65-.84s0,0,0,0a12,12,0,0,0-18.4.3,0,0,0,0,0,0,0,12.13,12.13,0,0,0-2.26,4.49,17.1,17.1,0,0,1-.83,2,202.82,202.82,0,0,0-7.37,21,195.12,195.12,0,0,1,5,20.81,201.36,201.36,0,0,1-.49,74.66.67.67,0,0,0,0-.2v-.07a.15.15,0,0,1,0,.06h0s0,0,0,0c0,.19,0,.39-.07.59-.21,1.05-.42,2.09-.65,3.13-.05.18-.11.35-.17.53v0a17.47,17.47,0,0,1-5.37,7.67s0,0-.07.06A17.16,17.16,0,0,1,426,340.08c-.15-.16-.3-.31-.44-.48h0a12.36,12.36,0,0,1-2.53-4.51q-.93-3.1-1.74-6.25a198.52,198.52,0,0,1-6.6-52.76,200.76,200.76,0,0,1,1.81-25.42c.61-4.53,1.39-9,2.3-13.45A196.92,196.92,0,0,0,408,211.78s0-.05,0-.08a6.8,6.8,0,0,0-.39-.76,7.55,7.55,0,0,0-13.48.74,1.86,1.86,0,0,1-.1.2q-4,9.1-7.21,18.7c-.71,2.16-1.39,4.36-2,6.55-.47,1.7-1,3.39-1.39,5.1.58,2.45,1.1,4.92,1.59,7.42a200,200,0,0,1,3.66,38.25,202.27,202.27,0,0,1-2.23,29.93c-.18,1.2-.37,2.4-.57,3.59a17.26,17.26,0,0,1-3.57,8.13,17.59,17.59,0,0,1-1.73,1.83,18.3,18.3,0,0,1-25.51-.57c-.14-.14-1.35-1.52-1.45-1.65a21.67,21.67,0,0,1-4.17-10.48c0-.2-.51-3.77-.55-4.05a201.73,201.73,0,0,1-.34-50.8c.09-.79.36-2.86.36-2.86.78-5.75,1.8-11.44,3.05-17a196,196,0,0,0-7.09-23,1.92,1.92,0,0,0-.33-.92,1.9,1.9,0,0,0-1.53-.78,1.84,1.84,0,0,0-1.67,1.05,1.7,1.7,0,0,0-.2.83,2.44,2.44,0,0,0,0,.27q-1.23,8-1.83,16.15c-.12,1.59-.21,3.17-.29,4.76,0,1.05-.09,2.1-.12,3.15a15.19,15.19,0,0,1-15,13c-.28,0-.55,0-.83,0a14.76,14.76,0,0,1-3.2-.53,15.08,15.08,0,0,1-9.15-7.14,14.82,14.82,0,0,1-1.89-5.78v-.58c0-.52,0-1,0-1.55V241.4q.09-6.33.58-12.56c.36-4.79,1.42-11.86,2.37-17.69a27.87,27.87,0,0,1,15.92-21l.17-.07c.58-.26,1.19-.51,1.79-.73a38.24,38.24,0,0,1,13.75-2.52,39,39,0,0,1,6.15.49c.82.12,1.66.29,2.47.49,0,0,0,0,0,0a42.76,42.76,0,0,1,15.83,10.75s1-1.83,1.29-2.48a49.12,49.12,0,0,1,4.56-7.31c3.21-4.59,8.19-7.53,13.45-9.68a38.27,38.27,0,0,1,14.7-2.9,38.5,38.5,0,0,1,30.39,14.76c.41.7.82,1.4,1.22,2.11,0,.09.1.18.15.27,0-.09.11-.2.17-.29a42.45,42.45,0,0,1,62.47-11.48,40.2,40.2,0,0,1,5.67,5.32,33.33,33.33,0,0,1,2.2,2.68c.09.16.17.31.24.46l.86,1.57c.21.43.44.86.65,1.27.08-.14.15-.29.23-.44l0-.05a22,22,0,0,1,6.38-7.58,41.21,41.21,0,0,1,6.66-4,20.52,20.52,0,0,1,3.45-1.3c1.21-.34,2.43-.62,3.68-.84l.14,0a27.15,27.15,0,0,1,8.88-.59,41.69,41.69,0,0,1,7.91,1.91,37.09,37.09,0,0,1,7.33,3.33c2.53,1.57,10.49,8.29,14.18,33h0C564.75,216.37,565.86,222.33,565.25,225Z" transform="translate(-117.05 -172.33)"/><path class="cls-6" d="M351.88,244q1.25-6,2.9-11.83t3.6-11.65q2-5.75,4.41-11.36c1.58-3.74,3.32-7.42,5.23-11-1.78,3.65-3.43,7.36-5,11.1s-3,7.55-4.28,11.39-2.59,7.69-3.72,11.59S352.86,240,351.88,244Z" transform="translate(-117.05 -172.33)"/><path class="cls-6" d="M338.69,246.6c0-2.61.06-5.23.17-7.84s.32-5.23.56-7.84c.51-5.21,1.21-10.4,2.21-15.55s2.69-10.31,6-14.46a23.87,23.87,0,0,1,5.85-5.27,33.33,33.33,0,0,1,7.12-3.3A25.68,25.68,0,0,0,344.36,208a47,47,0,0,0-2.07,7.5c-1,5.11-1.74,10.29-2.33,15.47q-.46,3.89-.76,7.8T338.69,246.6Z" transform="translate(-117.05 -172.33)"/><path class="cls-6" d="M380.56,331.32q-2-10.08-3.06-20.34c-.65-6.83-1-13.7-.95-20.57A195.81,195.81,0,0,1,381,249.53a192.48,192.48,0,0,1,13.21-38.95c2.89-6.21,6.2-12.33,10.73-17.53a39.71,39.71,0,0,1,7.68-6.85,34.91,34.91,0,0,1,9.25-4.44,35.27,35.27,0,0,0-9.17,4.57,39.82,39.82,0,0,0-7.52,6.92,74.13,74.13,0,0,0-10.57,17.51,191.74,191.74,0,0,0-12.94,38.91A196,196,0,0,0,377,290.42q-.09,10.27.83,20.53C378.41,317.78,379.33,324.58,380.56,331.32Z" transform="translate(-117.05 -172.33)"/><path class="cls-6" d="M418.69,237.14q1.08-5.73,2.59-11.37t3.34-11.17q1.89-5.52,4.13-10.91t4.84-10.6q-2.43,5.29-4.61,10.7t-4,10.93q-1.91,5.5-3.46,11.12T418.69,237.14Z" transform="translate(-117.05 -172.33)"/><path class="cls-6" d="M451.8,338.91a210.17,210.17,0,0,1-4.79-21.8,212.39,212.39,0,0,1-2.35-22.22,196,196,0,0,1,2.63-44.54,193.52,193.52,0,0,1,12.93-42.71,89.59,89.59,0,0,1,5.11-9.94,64.84,64.84,0,0,1,6.47-9.12,37.73,37.73,0,0,1,8.31-7.44,19.53,19.53,0,0,1,10.52-3.31,19.38,19.38,0,0,0-10.44,3.44,37.76,37.76,0,0,0-8.16,7.5,79.15,79.15,0,0,0-11.41,19A192.09,192.09,0,0,0,448,250.46a197.84,197.84,0,0,0-2.84,44.41,214.37,214.37,0,0,0,2.22,22.18A211.12,211.12,0,0,0,451.8,338.91Z" transform="translate(-117.05 -172.33)"/><path class="cls-6" d="M490.63,231.26q1.29-5,2.91-9.95c1.07-3.28,2.27-6.52,3.54-9.74s2.66-6.38,4.14-9.5,3-6.2,4.73-9.21q-2.32,4.62-4.47,9.33c-1.42,3.15-2.79,6.32-4.05,9.52s-2.48,6.44-3.62,9.7S491.62,228,490.63,231.26Z" transform="translate(-117.05 -172.33)"/><path class="cls-6" d="M522.61,331c-1.71-6.47-3.15-13-4.23-19.64s-1.81-13.28-2.24-20a199.56,199.56,0,0,1,1.41-40.14,192.08,192.08,0,0,1,9.81-38.94,76.12,76.12,0,0,1,4-9.25,57.48,57.48,0,0,1,5.29-8.56,28.94,28.94,0,0,1,7.22-7,13.73,13.73,0,0,1,4.62-1.94,10.92,10.92,0,0,1,5,.1,11.12,11.12,0,0,0-5,0,13.77,13.77,0,0,0-4.56,2,28.67,28.67,0,0,0-7,7,67.51,67.51,0,0,0-9.08,17.77,190.13,190.13,0,0,0-9.56,38.88,201.36,201.36,0,0,0-1.62,40q.58,10,2.11,19.95C519.69,318,521,324.52,522.61,331Z" transform="translate(-117.05 -172.33)"/></svg>